<svg xmlns="http://www.w3.org/2000/svg" viewBox="0 0 838.281 77.482" height="78" width="839"><defs><clipPath id="A"><path d="M0 58.112h628.71V0H0z"/></clipPath></defs><g clip-path="url(#A)" transform="matrix(1.333333 0 0 -1.333333 0 77.482267)"><path d="M151.057 18.132L0 20.132l151.057 2a2 2 0 1 0 .053-4h-.053m326.597 4l151.057-2-151.057-2a2 2 0 1 0-.053 4h.053" fill="#373535"/><path d="M151.057 20.132l88.978-.004a4 4 0 0 1 2.829 1.172l11.523 11.523a4 4 0 0 0 5.657 0L289.696 3.17a4 4 0 0 1 5.657 0l14.843 14.843a4 4 0 0 1 0 5.657l-9.478 9.478a4 4 0 0 1-5.656 0l-8.844-8.843a4 4 0 0 1 0-5.657l2.645-2.644a4 4 0 0 1 5.657 0l2.83 2.83a4 4 0 0 1 0 5.657l-15.95 15.95a4 4 0 0 1-5.657 0L257.53 22.228c-1.57-1.57-1.56-4.12.02-5.678l1.436-1.414a4 4 0 0 1 5.636.021l39.783 39.783a4 4 0 0 0 5.656 0l10.835-10.834a4 4 0 0 0 0-5.657l-6.542-6.542-6.54 6.542a4 4 0 0 0 0 5.657l10.834 10.834a4 4 0 0 0 5.657 0l39.783-39.783a4 4 0 0 1 5.636-.021l1.435 1.414a4 4 0 0 1 .021 5.678l-18.215 18.215a4 4 0 0 1-5.657 0l-15.95-15.95a4 4 0 0 1 0-5.657l2.832-2.83a4 4 0 0 1 5.657 0l2.644 2.644a4 4 0 0 1 0 5.657l-8.843 8.843a4 4 0 0 1-5.657 0l-9.478-9.478a4 4 0 0 1 0-5.657L333.358 3.17a4 4 0 0 1 5.656 0l29.652 29.652a4 4 0 0 0 5.657 0L385.846 21.3c.75-.75 1.768-1.172 2.83-1.172l88.978.004" fill="none" stroke="#373535" stroke-width="4" stroke-linecap="round" stroke-miterlimit="10"/></g></svg>