<svg xmlns="http://www.w3.org/2000/svg" viewBox="0 0 24 24"><path d="M4.652 0h1.44l.988 3.702L7.996 0H9.45L7.785 5.505v3.757h-1.43V5.505L4.652 0zm6.594 2.373c-1.12 0-1.86.74-1.86 1.835v3.35c0 1.204.63 1.83 1.86 1.83 1.022 0 1.826-.683 1.826-1.83v-3.35a1.78 1.78 0 0 0-1.826-1.835zm.53 5.127c0 .372-.2.646-.532.646-.35 0-.554-.287-.554-.646V4.32c0-.374.172-.65.53-.65.4 0 .557.27.557.65V7.5zm4.73-5.07v5.186c-.155.194-.5.512-.747.512-.27 0-.338-.186-.338-.46V2.43h-1.27v5.7c0 .675.206 1.22.887 1.22.384 0 .918-.2 1.468-.853v.754h1.27V2.43h-1.27zm2.203 13.858c-.448 0-.54.315-.54.763v.66h1.07v-.66c.001-.44-.092-.762-.528-.762zm-4.703.04c-.084.043-.167.11-.25.198v4.055a1.06 1.06 0 0 0 .287.229c.197.1.485.107.62-.067.07-.092.105-.24.105-.45v-3.36c0-.22-.043-.386-.13-.5-.147-.193-.42-.214-.632-.107zm4.827-5.195c-2.604-.177-11.066-.177-13.666 0C2.353 11.325 2.02 13.025 2 17.5c.02 4.467.35 6.175 3.167 6.367 2.6.177 11.062.177 13.666 0 2.814-.192 3.146-1.893 3.167-6.367-.02-4.467-.35-6.175-3.167-6.367zM6.51 21.82H5.146v-7.54h-1.4V13h4.182v1.28h-1.4v7.54zm4.846 0h-1.2V21.1c-.223.265-.455.467-.696.605-.652.374-1.547.365-1.547-.955v-5.438h1.21V20.3c0 .262.063.438.322.438.236 0 .564-.303.71-.487v-4.94h1.2v6.506zm4.657-1.348c0 .805-.3 1.43-1.106 1.43-.443 0-.812-.162-1.15-.583v.5h-1.22V13h1.22v2.84c.273-.333.644-.608 1.076-.608.886 0 1.18.75 1.18 1.63v3.61zm4.47-1.752H18.17v1.228c0 .488.042.9.528.9.51 0 .54-.344.54-.9v-.452h1.245v.49c0 1.253-.538 2.013-1.813 2.013-1.155 0-1.746-.842-1.746-2.013v-2.92c0-1.13.746-1.914 1.837-1.914 1.16 0 1.72.738 1.72 1.914v1.656z"/></svg>