<svg xmlns="http://www.w3.org/2000/svg" aria-hidden="true" style="position:absolute;width:0;height:0" overflow="hidden"><defs><symbol id="fancy-decoration" viewBox="0 0 776.483 143.357"><defs><clipPath id="A"><path d="M0 107.518h582.362V0H0z"/></clipPath></defs><path fill="none" stroke-miterlimit="10" stroke-width="4" d="M298.678 79.367l-7.07-7.07-7.07 7.07 7.07 7.07zM306.84 29.4l-15.233-15.233L276.374 29.4l15.233 15.233z" transform="matrix(1.33333 0 0 -1.33333 0 143.357)"/><g clip-path="url(#A)" transform="matrix(1.33333 0 0 -1.33333 0 143.357)"><path d="M581.404 50.618L566.3 50.14l-15.115-.288-15.114-.17-15.94-.067-.59.59-5.892 5.885h2.833L498.49 38.093l-11.96 11.952h2.855l-4.948-4.95v2.86l4.802-4.798h-2.863l9.567 9.574v-2.87l-9.904 9.896h2.88l-10.164-10.172-.847-.001-107.42-.044 1.475.61-16.997-17-69.864 69.695-.094.075-.048.01-.087.023a.616.616 0 0 0-.155.08c-.134.058-.355.094-.522.164l-.57.064c-.78.008-1.5-.302-2.07-.865l-16.93-16.944v3.036l51.203-51.162h-3.077l14.494 14.506v-3.09l-14.3 14.278h3.1l-8.485-8.49v3.108l27.6-27.58h-3.13l28.965 28.99V55.88l-21.122 21.105h3.17l-6.985-6.992.01 3.167L351.6 57.448 296.024 1.87c-.358-.272-.51-.487-1.244-.888l-.933-.47-.87-.266C292.4.05 291.78.065 291.18 0c-1.2.06-2.433.28-3.483.913-.558.256-1.007.67-1.474 1.055-.268.22-.344.325-.51.484l-54.95 54.996 1.574 1.593 13.944 14.12.01-3.167-6.986 6.992h3.172L221.354 55.88v3.154l28.966-28.99h-3.13l27.6 27.58v-3.108l-8.485 8.49h3.1l-14.3-14.278v3.09L269.6 37.312h-3.078l51.203 51.162v-3.036l-16.93 16.944c-1.12 1.162-3.016 1.15-4.152-.043l-69.258-69.2-16.996 17 1.474-.61-108.265.045-10.164 10.172h2.88l-9.903-9.896v2.87l9.566-9.574h-2.863l4.802 4.798v-2.86l-4.948 4.95h2.856L83.87 38.093 65.888 56.1h2.832l-6.48-6.474-.824.003-15.114.064-15.115.17-15.114.288-15.115.477a1 1 0 0 0-.956 1.043c.023.522.445.933.956.957l15.115.477 15.114.288 15.115.17 15.114.064-1.413-.586 7.3 7.31 17.992-17.977h-2.847l11.956 11.965 7.8-7.803-7.658-7.665-12.443 12.433 1.436 1.436 11.333 11.343 11.015-11.006-1.443.598 108.282.044 16.14-16.128h-2.96l67.72 67.776c1.26 1.298 3.184 2.172 5.07 2.16.472-.02.947-.07 1.416-.13l1.37-.417c.477-.23 1-.522 1.402-.79l.387-.315.193-.158.145-.118.206-.187 18.462-18.447-54.217-54.26-17.59 17.576 17.373 17.387 11.598-11.588-30.696-30.722-32.133 32.107 24.266 24.286 10.157-10.148-15.5-15.72-.01 3.18 53.41-53.367c.133-.128.328-.345.395-.372.188-.125.33-.317.55-.387.375-.262.846-.29 1.29-.35.22.063.46.001.668.102.106.035.214.065.325.09.083.035.113.074.18.09.044-.076.483.316.78.553l.12.1c.164.146-.188-.172-.142-.13l53.714 53.67-.01-3.18-15.5 15.72 10.157 10.148 24.267-24.286-32.133-32.107L302.91 56.07l11.598 11.588 1.55-1.55 15.823-15.837-17.59-17.576-54.216 54.26 18.462 18.447c1.31 1.327 3.225 2.15 5.12 2.113l1.413-.154c.463-.136.902-.234 1.376-.44l.728-.386.355-.21.173-.108.1-.08.676-.553.205-.187.044-.044 67.72-67.776h-2.962l16.14 16.128 108.282-.044-1.443-.598 11.015 11.006 1.44-1.44 11.33-11.34-12.443-12.433-7.66 7.665 7.81 7.803 11.955-11.965h-2.846L515.06 60.34l7.3-7.31-1.414.586 15.115-.064 15.114-.17 15.115-.288 15.114-.477a1 1 0 0 0 .957-1.043 1.006 1.006 0 0 0-.957-.957"/></g></symbol><symbol id="plain-decoration" viewBox="0 0 838.281 77.482"><defs><clipPath id="A"><path d="M0 58.112h628.71V0H0z"/></clipPath></defs><g clip-path="url(#A)" transform="matrix(1.33333 0 0 -1.33333 0 77.482)"><path d="M151.057 18.132L0 20.132l151.057 2a2 2 0 1 0 .053-4h-.053m326.597 4l151.057-2-151.057-2a2 2 0 1 0-.053 4h.053"/><path fill="none" stroke-linecap="round" stroke-miterlimit="10" stroke-width="4" d="M151.057 20.132l88.978-.004a4 4 0 0 1 2.829 1.172l11.523 11.523a4 4 0 0 0 5.657 0L289.696 3.17a4 4 0 0 1 5.657 0l14.843 14.843a4 4 0 0 1 0 5.657l-9.478 9.478a4 4 0 0 1-5.656 0l-8.844-8.843a4 4 0 0 1 0-5.657l2.645-2.644a4 4 0 0 1 5.657 0l2.83 2.83a4 4 0 0 1 0 5.657l-15.95 15.95a4 4 0 0 1-5.657 0L257.53 22.228a4.002 4.002 0 0 1 .02-5.678l1.436-1.414a4 4 0 0 1 5.636.021l39.783 39.783a4 4 0 0 0 5.656 0l10.835-10.834a4 4 0 0 0 0-5.657l-6.542-6.542-6.54 6.542a4 4 0 0 0 0 5.657l10.834 10.834a4 4 0 0 0 5.657 0l39.783-39.783a4 4 0 0 1 5.636-.021l1.435 1.414a4 4 0 0 1 .021 5.678l-18.215 18.215a4 4 0 0 1-5.657 0l-15.95-15.95a4 4 0 0 1 0-5.657l2.832-2.83a4 4 0 0 1 5.657 0l2.644 2.644a4 4 0 0 1 0 5.657l-8.843 8.843a4 4 0 0 1-5.657 0l-9.478-9.478a4 4 0 0 1 0-5.657L333.358 3.17a4 4 0 0 1 5.656 0l29.652 29.652a4 4 0 0 0 5.657 0L385.846 21.3a4.002 4.002 0 0 1 2.83-1.172l88.978.004"/></g></symbol></defs></svg>