<svg xmlns="http://www.w3.org/2000/svg" aria-hidden="true" style="position:absolute;width:0;height:0" overflow="hidden"><defs><symbol id="icon-arrow-down" viewBox="0 0 320 512"><path d="M143 352.3L7 216.3c-9.4-9.4-9.4-24.6 0-33.9l22.6-22.6c9.4-9.4 24.6-9.4 33.9 0l96.4 96.4 96.4-96.4c9.4-9.4 24.6-9.4 33.9 0l22.6 22.6c9.4 9.4 9.4 24.6 0 33.9l-136 136c-9.2 9.4-24.4 9.4-33.8 0z"/></symbol><symbol id="icon-calendar" viewBox="0 0 32 32"><path d="M30.179 5.25c-.452-.452-.988-.679-1.607-.679h-2.285V2.857c0-.786-.28-1.458-.839-2.018s-1.232-.84-2.018-.84h-1.143c-.786 0-1.458.28-2.018.839s-.839 1.232-.839 2.018V4.57h-6.857V2.856c0-.786-.28-1.458-.839-2.018s-1.232-.839-2.018-.839H8.573c-.786 0-1.458.28-2.018.839s-.839 1.232-.839 2.018V4.57H3.43c-.619 0-1.155.226-1.607.679s-.679.988-.679 1.607v22.857c0 .619.226 1.154.679 1.607s.988.679 1.607.679h25.142c.619 0 1.155-.226 1.607-.679s.679-.988.679-1.607V6.857c0-.619-.226-1.155-.678-1.607zM8.572 29.714H3.429v-5.143h5.143v5.143zm0-6.285H3.429v-5.714h5.143v5.715zm0-6.858H3.429v-5.143h5.143v5.143zM8.17 8.402A.55.55 0 0 1 8 8V2.857c0-.155.056-.289.17-.402s.247-.17.402-.17h1.143c.155 0 .289.056.402.17s.17.247.17.402v5.142c0 .155-.057.289-.17.402s-.247.17-.402.17H8.572a.546.546 0 0 1-.402-.17zm7.259 21.312H9.715v-5.143h5.714v5.143zm0-6.285H9.715v-5.714h5.714v5.715zm0-6.858H9.715v-5.143h5.714v5.143zm6.857 13.143h-5.714v-5.143h5.714v5.143zm0-6.286h-5.714v-5.714h5.714v5.715zm0-6.857h-5.714v-5.143h5.714v5.143zm-.402-8.169A.549.549 0 0 1 21.715 8V2.857c0-.155.056-.289.169-.402s.247-.17.402-.17h1.143c.155 0 .289.056.402.17s.169.247.169.402v5.142c0 .155-.056.289-.169.402s-.247.17-.402.17h-1.143a.546.546 0 0 1-.402-.17zm6.687 21.312h-5.143v-5.143h5.143v5.143zm0-6.286h-5.143v-5.714h5.143v5.715zm0-6.857h-5.143v-5.143h5.143v5.143z"/></symbol><symbol id="icon-amex" viewBox="0 0 36 32"><path d="M20.319 10.488c0-1.025-.881-1.15-1.712-1.15l-2.444-.019v4.331h1.025v-1.569h1.125c1.15 0 .906.644.925 1.569h1.038v-.844c0-.575-.094-.944-.688-1.15.462-.188.738-.669.731-1.169zm-1.838.706h-1.294v-.956H18.5c.319 0 .669.063.669.463 0 .412-.331.494-.688.494zm-1.043 5.594h-3.294l-1.313 1.425-1.281-1.425H7.394l-.006 4.331h4.088l1.331-1.438 1.275 1.438h2.013l.006-1.456c1.181 0 3.081.288 3.081-1.456 0-1.081-.769-1.419-1.744-1.419zm-6.488 3.418H8.413v-.863h2.269v-.881H8.413v-.781h2.606l1.119 1.262zm4.113.513l-1.581-1.756 1.581-1.712zm2.362-1.938H16.1v-1.1h1.344c.35 0 .637.144.637.525 0 .4-.288.575-.656.575zm-1.975-8.543v-.912h-3.469v4.331h3.469v-.894h-2.431V11.9h2.362v-.881h-2.363v-.781zM36 15.963h-.013zm-12.163 1.993c0-1.025-.881-1.169-1.694-1.169h-2.462l-.006 4.331h1.038l.006-1.581h1.1c.688 0 .925.125.925.863l-.006.719h1.038l.006-.863c0-.556-.113-.944-.688-1.15.481-.194.738-.675.744-1.15zm-1.825.7h-1.294v-.975h1.313c.319 0 .669.063.669.462 0 .431-.337.512-.688.512zm-10.799-5V9.325H9.488l-1.231 2.938-1.356-2.938H5.207v4.106L3.451 9.325H1.92L.064 13.656h1.119l.4-.956h2.156l.4.956h2.112v-3.387l1.5 3.387h.913l1.5-3.387v3.387zM1.95 11.8l.7-1.725.719 1.725zm29.838 9.931v-.281c-.675.35-.244.281-9.794.281v-1.575c-.106-.006-.2-.006-.587-.006l-.006 1.581h-2.475l.006-1.825c-.625.375-1.425.4-2.144.387l-.006 1.438h-3.056l-.963-1.087-1.006 1.087H6.632v-5.769h5.194l.969 1.075.981-1.075h3.625c.613 0 1.125.119 1.519.35v-.35c3.394 0 4.019-.088 4.731.319v-.319h4.887v.325c.712-.431 1.225-.325 4.056-.325v.313c.644-.369 1.038-.325 3.394-.313V4.999c0-1.656-1.344-3-3-3h-30c-1.656 0-3 1.344-3 3v6.862l1.444-3.369h2.481l.563 1.319V8.492h2.875l.869 1.875.787-1.875h6.438c0-.006.719 0 .725 0 2.731.012 3.35-.05 4.025.331v-.331h2.494v.581c.475-.381 1.119-.581 1.919-.581h1.725c0 .031.119.019.144.019h2.025l.55 1.287V8.511h2.706c.306.5-.063-.113.7 1.15v-1.15h2.494v5.75h-2.6c-.337-.563-.087-.137-.825-1.369v1.369h-3.3c-.4-.925-.006-.019-.413-.956h-1.188l-.4.956h-1.675c-.769 0-1.394-.188-1.856-.556v.556h-4.156c-.019-.869-.006-1.55-.006-1.55-.113-.019-.212-.012-.613-.012v1.569H9.451v-.713l-.319.713H7.288l-.319-.713v.713H3.663l-.4-.956h-1.2l-.4.956H0v12.731c0 1.656 1.344 3 3 3h30.006c1.656 0 3-1.344 3-3v-5.65c-.794.519-2.044.381-4.219.381zm2.268-4.031h1.881v-.913h-2.056c-.8 0-1.487.413-1.487 1.294 0 2.063 2.669.8 2.669 1.712 0 .319-.269.4-.525.4h-2l-.006.925h2c.525 0 1.1-.113 1.406-.556v-1.613c-.656-.863-2.456-.081-2.456-.844 0-.363.288-.406.575-.406zm-3.562 2.488h-2.012l-.006.925h2.012c.925 0 1.638-.35 1.638-1.375 0-2.075-2.681-.7-2.681-1.644 0-.35.306-.4.575-.4h1.9v-.913h-2.075c-.8 0-1.469.413-1.469 1.294 0 2.063 2.669.781 2.669 1.712-.006.337-.294.4-.55.4zm-2.638-2.507v-.894h-3.45l-.006 4.331h3.45l.006-.894-2.413-.019v-.863h2.369v-.881h-2.363v-.781zm-3.519-6.756c-.019.012-.087.137-.087.475 0 .375.056.481.069.494a.497.497 0 0 0 .212.031l.456-1.056c-.069 0-.131-.006-.194-.006-.35 0-.438.044-.456.063zm1.276-.656h-.006zm-1.013-.95c-1.469 0-2.125.75-2.125 2.206 0 1.387.637 2.125 2.063 2.125h1.2l.4-.956h2.144l.413.956h2.106v-3.244l1.95 3.244h1.475V9.337H33.17v3.006l-1.819-3.006H29.77v4.088l-1.744-4.088h-1.55l-1.469 3.406h-.462c-.831 0-1.006-.506-1.006-1.244 0-1.488.981-1.25 2.069-1.231v-.95zm2.631.756l.7 1.725h-1.425zm-6.318-.75v4.331h1.056V9.325z"/></symbol><symbol id="icon-discover" viewBox="0 0 36 32"><path d="M32.525 12.256c0-.494-.344-.756-.975-.756h-.306v1.556h.294c.644 0 .988-.275.988-.8zM33 2H3C1.344 2 0 3.344 0 5v22c0 1.656 1.344 3 3 3h30c1.656 0 3-1.344 3-3V5c0-1.656-1.344-3-3-3zm-2.756 8.681c1.413 0 3.306-.256 3.306 1.525 0 .787-.413 1.294-1.169 1.45l1.612 2.15h-1.225l-1.387-2.05h-.137v2.05h-1zm-3.494.007h2.831v.875H27.75V12.7h1.769v.863H27.75v1.387h1.831v.863H26.75zm-4.294 0l1.369 3.45 1.387-3.45h1.094l-2.219 5.262h-.538l-2.188-5.262zm-3.494-.188a2.786 2.786 0 1 1 0 5.574 2.786 2.786 0 1 1 0-5.574zm-3.081.381v1.188c-1.256-1.256-2.925-.294-2.925 1.188 0 1.563 1.719 2.406 2.925 1.2v1.188c-1.856.894-3.956-.356-3.956-2.388 0-1.95 2.069-3.313 3.956-2.375zm-6.075 4.144c.713 0 1.4-.956-.206-1.525-.938-.344-1.262-.713-1.262-1.419 0-1.45 1.912-1.963 3.106-.894l-.525.675c-.65-.725-1.556-.387-1.556.156 0 .275.169.431.769.644 1.137.412 1.475.781 1.475 1.6 0 1.844-2.425 2.338-3.537.706l.644-.619c.231.444.619.675 1.094.675zm-6.344.788H2v-5.125h1.462c1.631 0 2.756 1.063 2.756 2.569 0 1.156-.825 2.556-2.756 2.556zm4.219 0h-1v-5.125h1zM34 27.063a.945.945 0 0 1-.938.938H7.999c11.85-2.225 23.919-8.7 26-10zM4.631 11.975c-.325-.306-.725-.412-1.369-.412h-.263v3.387h.263c.644 0 1.062-.125 1.369-.4.356-.325.556-.8.556-1.294s-.2-.969-.556-1.281z"/></symbol><symbol id="icon-paypal" viewBox="0 0 36 32"><path d="M11.644 16.137c0 .762-.606 1.344-1.375 1.344-.575 0-1-.325-1-.938 0-.762.594-1.375 1.356-1.375.581 0 1.019.356 1.019.969zm-6.613-3.031h-.294c-.094 0-.188.063-.2.169l-.269 1.669.513-.019c.688 0 1.219-.094 1.344-.887.144-.838-.388-.931-1.094-.931zm17.75 0H22.5c-.113 0-.188.063-.2.169l-.262 1.669.5-.019c.813 0 1.375-.188 1.375-1.125-.006-.662-.6-.694-1.131-.694zM36 5v22c0 1.656-1.344 3-3 3H3c-1.656 0-3-1.344-3-3V5c0-1.656 1.344-3 3-3h30c1.656 0 3 1.344 3 3zM8.019 13.463c0-1.313-1.013-1.75-2.169-1.75h-2.5c-.156 0-.313.125-.325.294L2 18.388c-.019.125.075.25.2.25h1.188c.169 0 .325-.181.344-.356l.281-1.663c.063-.45.825-.294 1.125-.294 1.787 0 2.881-1.063 2.881-2.863zm5.262.549h-1.188c-.238 0-.25.344-.262.512-.363-.531-.887-.625-1.481-.625-1.531 0-2.7 1.344-2.7 2.825 0 1.219.763 2.012 1.981 2.012.563 0 1.262-.306 1.656-.744a1.69 1.69 0 0 0-.063.387c0 .144.063.25.2.25h1.075c.169 0 .313-.181.344-.356l.637-4.019c.019-.119-.075-.244-.2-.244zm2.532 6.119l3.981-5.787c.031-.031.031-.063.031-.106 0-.106-.094-.219-.2-.219h-1.2a.355.355 0 0 0-.281.156l-1.656 2.438-.688-2.344a.38.38 0 0 0-.344-.25h-1.169c-.106 0-.2.113-.2.219 0 .075 1.219 3.55 1.325 3.881-.169.238-1.281 1.788-1.281 1.975 0 .113.094.2.2.2h1.2a.365.365 0 0 0 .281-.163zm9.956-6.668c0-1.313-1.012-1.75-2.169-1.75h-2.481a.344.344 0 0 0-.344.294l-1.012 6.375c-.012.125.081.25.2.25h1.281c.125 0 .219-.094.25-.2l.281-1.813c.063-.45.825-.294 1.125-.294 1.775 0 2.869-1.063 2.869-2.863zm5.262.549h-1.188c-.238 0-.25.344-.269.512-.344-.531-.875-.625-1.481-.625-1.531 0-2.7 1.344-2.7 2.825 0 1.219.762 2.012 1.981 2.012.581 0 1.281-.306 1.656-.744-.019.094-.063.294-.063.387 0 .144.063.25.2.25h1.081c.169 0 .313-.181.344-.356l.637-4.019c.019-.119-.075-.244-.2-.244zM34 11.931c0-.125-.094-.219-.2-.219h-1.156c-.094 0-.188.075-.2.169l-1.012 6.5-.019.031c0 .113.094.219.219.219h1.031c.156 0 .313-.181.325-.356l1.013-6.325v-.019zm-5.625 3.238c-.762 0-1.356.606-1.356 1.375 0 .606.438.938 1.012.938.75 0 1.356-.575 1.356-1.344.006-.613-.431-.969-1.012-.969z"/></symbol><symbol id="icon-visa" viewBox="0 0 36 32"><path d="M29.381 14.456l.581 2.813h-2.087l1-2.719c-.012.019.206-.569.331-.931l.175.838zM36 5v22c0 1.656-1.344 3-3 3H3c-1.656 0-3-1.344-3-3V5c0-1.656 1.344-3 3-3h30c1.656 0 3 1.344 3 3zM9.531 20.7l3.95-9.7h-2.656l-2.456 6.625-.269-1.344-.875-4.463c-.144-.619-.588-.794-1.138-.819H2.043l-.044.194c.988.25 1.869.613 2.638 1.069L6.874 20.7H9.53zm5.9.012l1.575-9.713h-2.512l-1.569 9.713h2.506zm8.744-3.174c.012-1.106-.663-1.95-2.106-2.644-.881-.444-1.419-.744-1.419-1.2.012-.412.456-.838 1.444-.838a4.3 4.3 0 0 1 1.869.369l.225.106.344-2.1a6.238 6.238 0 0 0-2.25-.412c-2.481 0-4.225 1.325-4.238 3.213-.019 1.394 1.25 2.169 2.2 2.638.969.475 1.3.788 1.3 1.206-.012.65-.788.95-1.506.95-1 0-1.538-.156-2.356-.519l-.331-.156-.35 2.181c.587.269 1.675.506 2.8.519 2.637.006 4.356-1.3 4.375-3.313zM33 20.712l-2.025-9.713h-1.944c-.6 0-1.056.175-1.313.806l-3.731 8.906h2.637l.525-1.456h3.225l.3 1.456h2.325z"/></symbol><symbol id="icon-facebook" viewBox="0 0 20 32"><path d="M17.446 18l.889-5.791h-5.556V8.45c0-1.584.776-3.129 3.265-3.129h2.526V.391S16.277 0 14.085 0C9.509 0 6.518 2.774 6.518 7.795v4.414H1.432V18H6.52v14h6.261V18z"/></symbol><symbol id="icon-trello" viewBox="0 0 28 32"><path d="M24.519 2H3.507A3.503 3.503 0 0 0 .001 5.5c-.006 0 0-.25 0 21 0 1.931 1.569 3.5 3.5 3.5h21.012a3.502 3.502 0 0 0 3.481-3.5v-21A3.493 3.493 0 0 0 24.519 2zM12.313 23.206a1.682 1.682 0 0 1-1.681 1.663H5.463a1.677 1.677 0 0 1-1.688-1.663V7.319c0-.925.75-1.681 1.681-1.681h5.181c.925 0 1.681.75 1.681 1.681v15.887zm12.068-7c0 .925-.75 1.681-1.681 1.681h-5.063c-.925 0-1.681-.75-1.681-1.681V7.325c0-.925.75-1.681 1.675-1.681H22.7c.925 0 1.681.75 1.681 1.681v8.881z"/></symbol><symbol id="icon-twitter" viewBox="0 0 32 32"><path d="M28.711 9.482c.02.284.02.569.02.853 0 8.67-6.599 18.66-18.66 18.66A18.53 18.53 0 0 1 0 26.051c.528.061 1.036.081 1.584.081 3.066 0 5.888-1.035 8.142-2.802a6.57 6.57 0 0 1-6.132-4.548c.406.061.812.102 1.239.102.589 0 1.178-.081 1.726-.223A6.56 6.56 0 0 1 1.3 12.224v-.081a6.6 6.6 0 0 0 2.964.832A6.556 6.556 0 0 1 1.34 7.513c0-1.218.325-2.335.893-3.31a18.64 18.64 0 0 0 13.523 6.863 7.437 7.437 0 0 1-.162-1.502 6.555 6.555 0 0 1 6.558-6.558c1.888 0 3.594.792 4.792 2.071a12.895 12.895 0 0 0 4.163-1.584 6.539 6.539 0 0 1-2.883 3.614 13.168 13.168 0 0 0 3.777-1.015 14.103 14.103 0 0 1-3.289 3.391z"/></symbol><symbol id="icon-youtube" viewBox="0 0 32 32"><path d="M6.203 0h1.92L9.44 4.936 10.661 0H12.6l-2.22 7.34v5.009H8.473V7.34L6.202 0zm8.792 3.164c-1.493 0-2.48.987-2.48 2.447v4.467c0 1.605.84 2.44 2.48 2.44 1.363 0 2.435-.911 2.435-2.44V5.611l.001-.074a2.373 2.373 0 0 0-2.373-2.373l-.066.001h.003zM15.701 10c0 .496-.267.861-.709.861-.467 0-.739-.383-.739-.861V5.76c0-.499.229-.867.707-.867.533 0 .743.36.743.867V10zm6.307-6.76v6.915c-.207.259-.667.683-.996.683-.36 0-.451-.248-.451-.613V3.241h-1.693v7.6c0 .9.275 1.627 1.183 1.627.512 0 1.224-.267 1.957-1.137v1.005h1.693V3.241h-1.693zm2.937 18.477c-.597 0-.72.42-.72 1.017v.88h1.427v-.88c.001-.587-.123-1.016-.704-1.016zm-6.27.054a1.251 1.251 0 0 0-.333.264v5.407c.108.122.234.223.375.302l.007.004c.263.133.647.143.827-.089.093-.123.14-.32.14-.6v-4.48c0-.293-.057-.515-.173-.667-.196-.257-.56-.285-.843-.143zm6.436-6.927c-3.472-.236-14.755-.236-18.221 0-3.752.256-4.196 2.523-4.223 8.489.027 5.956.467 8.233 4.223 8.489 3.467.236 14.749.236 18.221 0 3.752-.256 4.195-2.524 4.223-8.489-.027-5.956-.467-8.233-4.223-8.489zM8.68 29.093H6.861V19.04H4.994v-1.707h5.576v1.707H8.703v10.053zm6.461 0h-1.6v-.96a3.535 3.535 0 0 1-.928.807c-.869.499-2.063.487-2.063-1.273v-7.251h1.613v6.651c0 .349.084.584.429.584.315 0 .752-.404.947-.649v-6.587h1.6v8.675zm6.21-1.797c0 1.073-.4 1.907-1.475 1.907-.591 0-1.083-.216-1.533-.777v.667h-1.627V17.334h1.627v3.787c.364-.444.859-.811 1.435-.811 1.181 0 1.573 1 1.573 2.173v4.813zm5.96-2.336h-3.084v1.637c0 .651.056 1.2.704 1.2.68 0 .72-.459.72-1.2v-.603h1.66v.653c0 1.671-.717 2.684-2.417 2.684-1.54 0-2.328-1.123-2.328-2.684v-3.893c0-1.507.995-2.552 2.449-2.552 1.547 0 2.293.984 2.293 2.552v2.208z"/></symbol></defs></svg>